<?xml version="1.0" standalone="no"?>
<!DOCTYPE svg PUBLIC "-//W3C//DTD SVG 20010904//EN"
 "http://www.w3.org/TR/2001/REC-SVG-20010904/DTD/svg10.dtd">
<svg version="1.0" xmlns="http://www.w3.org/2000/svg"
 width="657.000000pt" height="333.000000pt" viewBox="0 0 657.000000 333.000000"
 preserveAspectRatio="xMidYMid meet">
<metadata>
Created by potrace 1.16, written by Peter Selinger 2001-2019
</metadata>
<g transform="translate(0.000000,333.000000) scale(0.100000,-0.100000)"
fill="#411f03" stroke="none">
<path d="M3124 3103 c-92 -120 -246 -319 -342 -443 -225 -292 -240 -310 -258
-310 -8 0 -49 16 -91 35 -42 19 -84 35 -94 35 -18 0 -116 -97 -399 -395 -67
-71 -129 -129 -136 -129 -16 2 -138 92 -316 232 -74 58 -139 102 -152 102 -11
0 -51 -26 -87 -58 -132 -115 -487 -419 -748 -640 -62 -54 -148 -126 -190 -162
-42 -36 -103 -87 -136 -114 -150 -121 -184 -170 -134 -196 31 -17 79 6 215
105 160 115 322 223 420 279 133 76 390 196 420 196 28 0 27 -1 -26 -56 -50
-50 -240 -207 -393 -323 -92 -70 -112 -111 -54 -111 35 0 260 109 424 206 17
11 72 43 121 72 49 28 97 63 105 76 18 27 34 101 77 356 17 102 35 189 40 194
9 9 62 -69 144 -209 26 -44 65 -109 87 -144 39 -62 40 -64 23 -89 -9 -14 -81
-92 -160 -174 -137 -141 -157 -169 -134 -183 22 -14 171 84 310 204 41 35 83
71 93 79 63 55 -50 -117 -135 -205 -65 -65 -71 -93 -22 -93 36 0 191 77 197
98 3 9 21 61 40 114 19 54 38 115 42 136 9 57 52 121 267 404 99 130 114 146
129 131 6 -6 -22 -83 -85 -228 -74 -169 -114 -245 -176 -338 -80 -119 -94
-158 -59 -165 24 -4 212 161 322 282 84 93 122 144 231 306 37 55 28 43 136
177 49 61 100 119 112 128 22 15 23 15 26 -8 4 -29 -160 -384 -214 -466 -40
-60 -227 -251 -364 -372 -137 -121 -146 -133 -115 -159 21 -18 201 -8 242 14
34 17 78 54 202 171 206 193 264 253 313 324 28 42 54 78 58 81 3 3 28 39 55
80 27 41 55 82 62 90 7 8 38 45 68 83 60 72 92 88 80 40 -16 -66 -101 -286
-142 -370 -53 -106 -122 -196 -292 -377 -67 -70 -121 -137 -121 -147 0 -29 40
-33 104 -10 82 29 169 103 301 256 59 68 73 90 137 214 62 120 89 167 157 271
103 160 113 181 113 231 -1 30 -19 96 -51 185 l-50 139 -2 282 c-1 156 0 286
4 289 17 17 40 -16 103 -142 40 -82 80 -149 98 -165 17 -15 74 -64 126 -109
102 -87 168 -155 231 -236 37 -49 118 -227 174 -387 30 -84 46 -101 127 -131
29 -11 81 -47 134 -94 121 -108 122 -108 140 -90 14 13 9 26 -42 112 -32 55
-53 101 -48 106 16 14 321 -264 551 -503 117 -121 142 -138 298 -199 28 -10
64 -25 81 -33 18 -8 81 -35 140 -58 207 -83 244 -90 244 -47 0 15 -25 36 -91
78 -49 31 -136 86 -192 122 -335 213 -404 285 -566 591 -81 154 -68 167 51 52
45 -43 145 -152 223 -243 182 -212 316 -332 542 -489 52 -36 64 -41 82 -31 12
6 21 17 21 24 0 7 -41 63 -90 125 -95 116 -180 236 -180 251 0 25 31 15 152
-45 242 -122 384 -213 646 -414 191 -148 216 -163 251 -159 20 2 26 9 26 28 0
27 -16 41 -385 330 -122 96 -262 207 -309 245 -47 39 -95 77 -107 85 -11 8
-41 31 -65 52 -24 20 -83 67 -130 105 -48 37 -145 116 -217 176 -72 59 -139
107 -149 107 -11 0 -56 -18 -102 -40 -45 -22 -91 -40 -101 -40 -10 0 -40 19
-66 43 -27 23 -74 63 -104 87 -30 25 -59 50 -65 56 -31 33 -124 104 -137 104
-8 0 -35 -15 -59 -33 -86 -64 -238 -167 -247 -167 -11 0 -128 133 -243 274
-36 45 -96 128 -133 186 -55 85 -131 181 -231 294 -6 6 -62 72 -125 146 -63
74 -120 140 -126 145 -6 6 -28 33 -50 60 -48 61 -52 65 -85 65 -22 0 -51 -32
-195 -217z"/>
<path d="M3736 1997 c-29 -29 -94 -165 -135 -282 -28 -79 -28 -82 -16 -175 7
-52 16 -125 19 -162 4 -36 13 -74 19 -83 25 -33 47 -6 112 140 15 33 36 78 46
101 11 22 19 45 19 50 0 5 11 26 25 46 19 29 36 40 79 52 87 26 99 23 182 -48
84 -72 389 -246 430 -246 45 0 23 30 -86 119 -127 103 -170 147 -235 242 -64
95 -97 125 -160 145 -57 19 -132 55 -185 90 -57 37 -85 40 -114 11z"/>
<path d="M1549 999 c-198 -14 -378 -56 -579 -136 -158 -63 -264 -121 -530
-293 -74 -48 -189 -117 -255 -152 -122 -67 -175 -106 -175 -130 0 -27 40 -58
73 -58 99 0 262 72 480 211 81 52 153 97 160 102 177 109 486 214 747 254 138
21 462 23 585 4 347 -54 628 -155 1025 -368 121 -65 237 -114 254 -107 23 9
20 37 -6 61 -21 18 -184 131 -233 160 -11 6 -56 33 -100 60 -304 181 -659 319
-950 367 -89 15 -328 37 -369 35 -12 -1 -69 -5 -127 -10z"/>
<path d="M4492 919 c-194 -16 -396 -68 -597 -154 -150 -64 -417 -211 -472
-260 -24 -21 -26 -26 -13 -35 29 -21 92 -1 243 75 358 181 580 245 872 253
335 8 524 -53 980 -318 146 -85 276 -147 392 -187 59 -21 100 -39 91 -41 -47
-9 -204 34 -378 104 -247 100 -339 124 -512 131 -151 6 -236 -3 -386 -43 -99
-26 -277 -100 -390 -161 -74 -40 -75 -37 -4 16 27 20 78 58 113 85 35 26 91
62 123 78 71 36 243 93 308 103 50 8 75 26 62 46 -9 16 -202 6 -309 -16 -163
-34 -227 -73 -351 -213 -47 -53 -111 -116 -142 -140 -131 -99 -376 -123 -617
-61 -79 20 -254 81 -288 100 -9 5 -99 43 -200 85 -573 238 -866 309 -1267 308
-164 0 -230 -5 -328 -22 -201 -36 -373 -86 -587 -172 -116 -46 -618 -299 -633
-318 -10 -13 -9 -19 2 -31 13 -12 23 -12 83 4 75 20 157 53 278 110 143 67
159 74 230 100 299 111 482 153 776 176 255 21 539 -12 839 -96 204 -57 338
-104 650 -230 382 -154 498 -185 685 -185 179 0 279 28 527 149 255 123 410
172 611 191 201 19 395 -11 704 -111 292 -94 435 -109 641 -67 166 33 337 111
337 153 0 19 -10 20 -155 26 -241 10 -389 50 -615 164 -77 40 -165 89 -195
109 -75 51 -336 178 -441 214 -121 43 -255 69 -403 82 -71 5 -136 9 -145 9 -9
-1 -62 -6 -119 -10z"/>
</g>
</svg>
